<?xml version="1.0" standalone="no"?>
<!DOCTYPE svg PUBLIC "-//W3C//DTD SVG 20010904//EN"
 "http://www.w3.org/TR/2001/REC-SVG-20010904/DTD/svg10.dtd">
<svg version="1.0" xmlns="http://www.w3.org/2000/svg"
 width="882.000000pt" height="882.000000pt" viewBox="0 0 882.000000 882.000000"
 preserveAspectRatio="xMidYMid meet">
<metadata>
Created by potrace 1.11, written by Peter Selinger 2001-2013
</metadata>
<g transform="translate(0.000000,882.000000) scale(0.100000,-0.100000)"
fill="#000000" stroke="none">
<path d="M3362 7177 c-22 -92 -25 -103 -44 -187 -15 -68 -11 -114 16 -163 14
-28 22 -57 20 -76 -3 -22 2 -33 16 -41 27 -14 27 -14 38 33 6 23 23 54 38 67
53 50 58 74 69 315 6 133 2 158 -10 70 -4 -27 -8 -59 -10 -70 -1 -11 -6 -47
-10 -80 -4 -33 -9 -67 -11 -75 -1 -8 -3 -21 -3 -28 -1 -8 -7 -12 -13 -9 -7 2
-12 8 -11 13 0 5 4 62 8 127 3 65 8 127 10 139 3 12 1 18 -4 12 -5 -5 -12 -36
-15 -69 -3 -33 -8 -69 -10 -80 -2 -12 -7 -46 -11 -78 -4 -31 -11 -60 -16 -63
-12 -7 -11 26 1 101 5 33 12 83 15 110 3 28 8 64 11 80 3 26 3 27 -5 8 -6 -12
-13 -41 -16 -65 -4 -23 -8 -45 -10 -48 -2 -3 -6 -23 -9 -45 -11 -73 -28 -135
-37 -135 -13 0 -11 40 11 189 11 74 18 136 17 138 -2 1 -13 -39 -25 -90z"/>
<path d="M2818 6758 c-71 -9 -118 -32 -118 -58 0 -24 5 -27 60 -35 25 -3 56
-8 70 -10 45 -7 248 -35 302 -41 29 -4 56 -8 59 -10 3 -2 55 -6 115 -9 184
-10 193 -11 344 -45 47 -10 100 -22 119 -25 19 -3 37 -8 41 -10 4 -2 40 -7 81
-11 67 -5 77 -4 102 16 37 29 35 79 -4 97 -44 21 -164 35 -424 48 -60 3 -133
12 -161 20 -66 19 -188 45 -240 51 -23 3 -53 7 -65 9 -13 3 -64 8 -114 11 -49
3 -94 6 -100 8 -5 1 -36 -1 -67 -6z"/>
<path d="M3353 6573 c-15 -3 -24 -12 -25 -26 0 -12 -2 -26 -3 -32 -12 -63 -20
-102 -37 -170 -20 -84 -26 -103 -57 -200 -37 -116 -33 -153 19 -180 28 -14 33
-14 65 1 19 9 38 26 42 37 4 12 7 117 8 232 1 116 5 240 9 278 5 37 7 66 5 66
-2 -1 -14 -4 -26 -6z"/>
<path d="M3527 6424 c-18 -24 -18 -24 28 -72 26 -26 65 -80 87 -120 36 -65 43
-72 67 -69 16 3 26 10 25 20 -4 43 -135 235 -177 258 -7 4 -20 -3 -30 -17z"/>
<path d="M3630 5829 c-25 -40 -113 -130 -158 -161 -21 -14 -22 -19 -12 -40 7
-12 14 -25 16 -27 15 -17 234 206 234 239 0 5 -45 31 -53 30 -1 0 -13 -19 -27
-41z"/>
<path d="M3130 5473 c-19 -9 -82 -32 -140 -53 -95 -34 -105 -40 -102 -61 1
-13 6 -27 11 -32 8 -8 287 98 297 114 6 10 -13 49 -24 48 -4 0 -23 -8 -42 -16z"/>
<path d="M2425 5254 c-77 -18 -144 -33 -148 -33 -5 -1 -7 -13 -5 -28 4 -36 20
-37 140 -7 51 13 103 26 116 28 55 11 63 17 59 44 -2 14 -8 27 -13 28 -5 0
-72 -14 -149 -32z"/>
<path d="M1810 5124 c-58 -13 -118 -27 -135 -32 -31 -9 -41 -28 -26 -50 6 -11
37 -7 156 22 81 19 149 37 152 40 10 10 -9 46 -25 45 -9 0 -64 -11 -122 -25z"/>
<path d="M1220 4961 c-136 -54 -190 -79 -190 -89 0 -4 6 -16 13 -25 11 -16 18
-15 93 17 44 19 107 42 140 52 32 10 63 21 67 24 9 8 -9 60 -20 59 -5 0 -51
-18 -103 -38z"/>
<path d="M2822 4788 c-5 -7 -22 -47 -37 -88 -15 -41 -36 -97 -46 -125 -37
-100 -17 -215 34 -199 29 9 57 42 58 68 2 50 13 86 50 165 50 108 54 131 28
165 -22 28 -69 36 -87 14z"/>
<path d="M6310 4755 c-81 -22 -273 -86 -315 -105 -11 -5 -151 -58 -310 -118
-264 -98 -293 -107 -328 -99 -29 7 -49 5 -83 -8 -58 -22 -64 -48 -35 -135 22
-63 22 -74 16 -330 -3 -146 -8 -299 -10 -340 -12 -256 -17 -338 -21 -365 -2
-16 -7 -71 -10 -122 -6 -86 -5 -94 19 -135 33 -57 85 -108 108 -108 17 0 67
25 344 169 120 63 382 185 570 266 247 107 442 178 587 215 148 37 162 47 118
84 -17 14 -37 26 -43 27 -75 7 -134 -3 -272 -47 -131 -41 -452 -160 -542 -200
-17 -8 -34 -14 -38 -14 -4 0 -21 -6 -38 -14 -18 -8 -111 -48 -207 -90 -97 -41
-236 -104 -310 -139 -74 -36 -136 -64 -138 -62 -5 5 -4 281 1 320 3 22 9 74
12 115 4 41 12 80 18 87 18 18 147 87 265 141 119 55 441 178 490 188 70 14
96 92 40 123 -24 14 -34 14 -95 -3 -91 -24 -297 -102 -521 -196 l-183 -78 8
102 c4 55 8 166 8 246 l0 145 180 76 c99 42 221 96 270 119 50 23 171 69 270
103 165 55 187 60 260 59 90 -2 138 18 155 64 14 35 13 41 -10 64 -28 28 -119
26 -230 -5z"/>
<path d="M625 4672 c-120 -80 -154 -105 -154 -112 0 -3 6 -13 14 -23 13 -18
18 -15 102 40 48 33 110 72 136 87 45 26 48 29 34 49 -7 11 -18 22 -23 24 -5
1 -54 -28 -109 -65z"/>
<path d="M4639 4723 c-10 -11 -15 -48 -16 -117 -1 -56 -4 -128 -8 -161 -15
-153 -26 -241 -30 -255 -4 -14 -17 -112 -18 -137 0 -7 -25 -20 -56 -29 -156
-44 -341 -117 -389 -152 -59 -43 -62 -105 -5 -131 42 -19 67 -12 144 39 67 44
226 110 266 110 10 0 12 -12 8 -47 -3 -27 -8 -68 -11 -93 -3 -25 -7 -58 -9
-75 -2 -16 -6 -61 -10 -100 -3 -38 -8 -81 -10 -95 -18 -107 -26 -448 -12 -508
11 -51 47 -82 93 -82 46 0 64 28 55 88 -15 113 -2 519 24 742 13 116 18 166
19 183 0 21 46 35 176 53 25 3 54 8 65 11 11 3 85 6 164 7 128 2 145 4 157 21
19 25 18 29 -10 62 l-24 28 -179 0 c-148 0 -229 -5 -308 -18 -12 -2 -14 35 -4
83 7 33 12 61 25 150 3 19 8 49 10 65 11 63 13 252 3 295 -6 24 -17 53 -26 62
-20 23 -66 23 -84 1z"/>
<path d="M8210 4730 c-12 -7 -15 -33 -17 -116 -1 -113 -13 -253 -28 -349 -1
-11 -8 -63 -15 -115 -14 -105 -19 -115 -58 -124 -52 -13 -188 -58 -277 -93
-139 -55 -183 -96 -163 -154 10 -28 45 -49 83 -49 13 0 56 22 96 49 70 48 260
123 274 109 3 -3 -1 -59 -9 -124 -8 -66 -18 -150 -22 -189 -3 -38 -8 -77 -9
-86 -16 -84 -25 -459 -13 -514 13 -56 43 -85 89 -85 50 0 70 26 61 83 -14 84
-5 509 13 652 2 17 7 59 10 95 7 76 16 159 21 180 1 8 3 18 3 21 1 3 34 12 74
19 39 7 83 15 97 17 76 14 177 20 267 17 101 -4 103 -3 119 22 16 24 16 27 -3
52 -10 14 -33 30 -49 34 -68 20 -379 7 -467 -19 -20 -5 -20 8 -2 110 3 15 9
53 15 85 18 105 24 176 25 292 0 98 -3 120 -20 150 -22 37 -64 50 -95 30z"/>
<path d="M1175 4636 c-14 -10 -18 -25 -17 -62 5 -130 7 -505 4 -540 -3 -33 -9
-42 -32 -51 -15 -6 -36 -22 -45 -37 -26 -39 -13 -72 50 -124 8 -7 14 -16 11
-20 -2 -4 -7 -38 -10 -77 -11 -115 -16 -158 -22 -195 -3 -19 -7 -55 -10 -80
-2 -25 -6 -55 -8 -66 -3 -12 -7 -48 -11 -80 -4 -33 -9 -70 -11 -84 -9 -55 -16
-240 -10 -263 3 -15 19 -31 40 -41 44 -21 59 -20 86 2 21 17 23 27 26 162 2
129 10 265 19 309 1 9 6 43 9 76 7 62 13 115 21 175 2 19 7 60 10 90 7 60 15
113 18 116 2 2 210 46 282 60 11 2 54 11 95 19 41 8 86 17 100 20 14 3 61 12
105 21 44 8 91 17 105 20 14 2 35 6 48 9 l22 5 1 -292 c1 -161 3 -304 4 -318
1 -14 5 -69 9 -122 4 -54 9 -108 11 -120 2 -13 6 -45 10 -73 3 -27 9 -66 12
-85 3 -19 6 -41 7 -47 1 -7 13 -27 25 -44 22 -30 26 -31 73 -26 86 11 102 41
63 122 -26 57 -39 110 -49 205 -14 132 -16 200 -15 445 0 143 1 288 1 321 l0
62 42 7 c22 4 50 9 61 11 11 2 43 9 70 15 90 18 162 22 215 9 39 -9 57 -9 79
0 52 21 66 88 30 135 -22 27 -23 27 -118 22 -114 -6 -156 -11 -311 -36 -37 -6
-57 -5 -62 2 -7 11 -4 84 8 202 11 112 12 169 2 188 -13 26 -53 38 -85 26 -24
-9 -61 -43 -64 -58 -7 -32 -10 -80 -15 -221 -3 -91 -9 -168 -12 -171 -11 -10
-197 -47 -452 -89 -129 -22 -245 -42 -256 -45 -21 -5 -21 -2 -17 63 2 37 8
101 12 142 18 166 0 391 -33 412 -19 13 -101 9 -121 -6z"/>
<path d="M183 4253 c-28 -43 -63 -105 -78 -137 -27 -57 -27 -60 -10 -73 11 -7
22 -13 26 -13 3 0 24 37 46 83 22 46 57 107 78 135 36 51 37 54 19 67 -11 8
-21 15 -24 15 -4 0 -29 -35 -57 -77z"/>
<path d="M3785 4050 c-70 -28 -205 -214 -328 -452 -30 -58 -57 -104 -60 -102
-2 3 -3 24 -1 47 1 23 5 99 8 168 3 70 8 133 10 140 3 8 7 42 11 77 5 57 4 64
-19 87 -14 14 -31 25 -38 26 -7 0 -21 2 -30 4 -32 6 -57 -27 -63 -80 -3 -27
-8 -63 -10 -80 -6 -47 -15 -189 -20 -320 -2 -66 -7 -199 -12 -295 -13 -312 -9
-343 44 -356 14 -4 37 -3 52 2 27 10 29 15 80 174 83 259 205 527 327 716 18
28 39 56 48 63 37 31 45 -44 50 -469 2 -151 6 -286 10 -300 4 -14 7 -67 7
-118 0 -86 1 -94 27 -123 35 -38 93 -50 122 -24 26 24 26 74 0 128 -28 57 -29
74 -30 448 -1 452 -22 580 -102 629 -35 21 -51 23 -83 10z"/>
<path d="M7093 4025 c-103 -28 -186 -88 -199 -141 -8 -32 17 -70 52 -78 23 -6
31 -2 55 27 42 51 110 80 189 81 113 2 170 -53 224 -215 36 -106 43 -247 17
-354 l-17 -70 -32 61 c-41 81 -78 123 -127 145 -91 42 -206 13 -294 -73 -145
-144 -186 -355 -87 -454 80 -80 245 -68 422 31 l60 34 19 -35 c16 -29 23 -34
55 -34 33 0 39 4 53 38 34 82 70 224 85 342 11 89 7 301 -7 360 -35 144 -129
279 -226 325 -53 24 -173 30 -242 10z m144 -690 c17 -20 44 -65 59 -101 31
-74 35 -67 -66 -126 -170 -101 -276 -102 -287 -3 -10 91 56 201 147 246 71 35
106 31 147 -16z"/>
<path d="M2807 3970 c-35 -28 -45 -70 -52 -220 -5 -120 -14 -294 -21 -390 -7
-112 -4 -318 5 -342 19 -52 85 -74 126 -44 23 17 26 84 6 156 -12 41 -10 211
4 330 2 19 6 55 9 80 3 25 8 74 11 110 4 36 8 70 10 77 2 7 7 54 11 106 6 89
5 95 -17 119 -34 37 -61 42 -92 18z"/>
<path d="M11 3623 c2 -60 9 -133 15 -163 10 -52 12 -55 40 -55 32 0 32 2 20
85 -3 25 -9 85 -12 135 -6 90 -12 105 -47 105 -17 0 -19 -8 -16 -107z"/>
<path d="M168 3104 c-16 -8 -28 -17 -28 -19 0 -24 154 -275 168 -275 4 0 16 7
26 15 18 14 17 18 -32 94 -28 44 -61 107 -74 141 -13 33 -25 60 -28 59 -3 0
-17 -7 -32 -15z"/>
</g>
</svg>
